<svg width="29" height="29" viewBox="0 0 29 29" fill="none" xmlns="http://www.w3.org/2000/svg">
<path d="M17.4659 14.7003H22.7156C24.1887 14.7003 25.375 13.4275 25.375 11.8707C25.375 10.3033 24.1788 9.04102 22.7156 9.04102C21.2425 9.04102 20.0562 10.3138 20.0562 11.8707" stroke="#2F80ED" stroke-width="1.5" stroke-miterlimit="10" stroke-linecap="round" stroke-linejoin="round"/>
<path d="M6.59094 12.1968H14.1416C15.983 12.1968 17.4659 10.5407 17.4659 8.51506C17.4659 6.47575 15.9706 4.83334 14.1416 4.83334C12.3003 4.83334 10.8174 6.48943 10.8174 8.51506" stroke="#2F80ED" stroke-width="1.5" stroke-miterlimit="10" stroke-linecap="round" stroke-linejoin="round"/>
<path d="M3.625 16.9304H14.1416C15.9829 16.9304 17.4659 18.5865 17.4659 20.6122C17.4659 22.6515 15.9706 24.2939 14.1416 24.2939C12.3003 24.2939 10.8173 22.6378 10.8173 20.6122" stroke="#2F80ED" stroke-width="1.5" stroke-miterlimit="10" stroke-linecap="round" stroke-linejoin="round"/>
</svg>
